<?xml version="1.0" encoding="UTF-8" standalone="no"?>
<!DOCTYPE svg PUBLIC "-//W3C//DTD SVG 1.1//EN" "http://www.w3.org/Graphics/SVG/1.1/DTD/svg11.dtd">
<svg width="100%" height="100%" viewBox="0 0 1228 1228" version="1.1" xmlns="http://www.w3.org/2000/svg" xmlns:xlink="http://www.w3.org/1999/xlink" xml:space="preserve" xmlns:serif="http://www.serif.com/" style="fill-rule:evenodd;clip-rule:evenodd;stroke-linecap:round;stroke-linejoin:round;stroke-miterlimit:1.5;">
    <g transform="matrix(1,0,0,1,-297.276,-456.79)">
        <path d="M1181.82,519.29L1320.02,519.29C1398.73,519.29 1462.62,583.186 1462.62,661.888L1462.62,812.785" style="fill:none;stroke:black;stroke-width:125px;"/>
        <path d="M1462.62,1329.12L1462.62,1479.54C1462.62,1558.24 1398.73,1622.14 1320.02,1622.14L1182.54,1622.14" style="fill:none;stroke:black;stroke-width:125px;"/>
        <path d="M664.88,1622.14L502.374,1622.14C423.672,1622.14 359.776,1558.24 359.776,1479.54L359.776,1329.33" style="fill:none;stroke:black;stroke-width:125px;"/>
        <path d="M359.776,812.682L359.776,661.888C359.776,583.186 423.672,519.29 502.374,519.29L666.734,519.29" style="fill:none;stroke:black;stroke-width:125px;"/>
        <path d="M1181.82,519.29L1320.02,519.29C1398.73,519.29 1462.62,583.186 1462.62,661.888L1462.62,812.785" style="fill:none;stroke:white;stroke-width:41.67px;"/>
        <path d="M1462.62,1329.12L1462.62,1479.54C1462.62,1558.24 1398.73,1622.14 1320.02,1622.14L1182.54,1622.14" style="fill:none;stroke:white;stroke-width:41.67px;"/>
        <path d="M664.88,1622.14L502.374,1622.14C423.672,1622.14 359.776,1558.24 359.776,1479.54L359.776,1329.33" style="fill:none;stroke:white;stroke-width:41.67px;"/>
        <path d="M359.776,812.682L359.776,661.888C359.776,583.186 423.672,519.29 502.374,519.29L666.734,519.29" style="fill:none;stroke:white;stroke-width:41.67px;"/>
        <g transform="matrix(-2.74187,2.74187,-2.4602,-2.4602,6337.76,1350.07)">
            <path d="M940.441,1130.07C1017.67,1130.07 1080.37,1143.97 1080.37,1161.1C1080.37,1178.22 1017.67,1192.13 940.441,1192.13C863.215,1192.13 800.518,1178.22 800.518,1161.1C800.518,1143.97 863.215,1130.07 940.441,1130.07ZM940.441,1137.82C998.361,1137.82 1045.38,1148.25 1045.38,1161.1C1045.38,1173.94 998.361,1184.37 940.441,1184.37C882.522,1184.37 835.499,1173.94 835.499,1161.1C835.499,1148.25 882.522,1137.82 940.441,1137.82Z" style="fill:none;stroke:black;stroke-width:22.62px;"/>
            <path d="M940.441,1130.07C1017.67,1130.07 1080.37,1143.97 1080.37,1161.1C1080.37,1178.22 1017.67,1192.13 940.441,1192.13C863.215,1192.13 800.518,1178.22 800.518,1161.1C800.518,1143.97 863.215,1130.07 940.441,1130.07ZM940.441,1137.82C998.361,1137.82 1045.38,1148.25 1045.38,1161.1C1045.38,1173.94 998.361,1184.37 940.441,1184.37C882.522,1184.37 835.499,1173.94 835.499,1161.1C835.499,1148.25 882.522,1137.82 940.441,1137.82Z" style="fill:rgb(255,0,136);"/>
        </g>
        <g transform="matrix(1,0,0,1,5.41552,-6.40095)">
            <clipPath id="_clip1">
                <circle cx="905.121" cy="1085.44" r="327.448"/>
            </clipPath>
            <g clip-path="url(#_clip1)">
                <g transform="matrix(0.965926,-0.258819,0.258819,0.965926,342.172,-37.5407)">
                    <rect x="260.373" y="831.503" width="379.47" height="839.249" style="fill:rgb(64,0,255);"/>
                </g>
                <g transform="matrix(1.03254,-0.276668,0.271138,1.0119,-130.694,508.671)">
                    <path d="M849.43,496.241C849.43,511.081 837.622,523.129 823.078,523.129L401.15,523.129C386.606,523.129 374.798,511.081 374.798,496.241C374.798,481.4 386.606,469.352 401.15,469.352L823.078,469.352C837.622,469.352 849.43,481.4 849.43,496.241Z" style="fill:rgb(104,80,255);"/>
                </g>
                <g transform="matrix(1.03254,-0.276668,0.271138,1.0119,-60.0536,606.207)">
                    <path d="M849.43,496.241C849.43,511.081 837.622,523.129 823.078,523.129L401.15,523.129C386.606,523.129 374.798,511.081 374.798,496.241C374.798,481.4 386.606,469.352 401.15,469.352L823.078,469.352C837.622,469.352 849.43,481.4 849.43,496.241Z" style="fill:rgb(104,80,255);"/>
                </g>
                <g transform="matrix(1.03254,-0.276668,0.271138,1.0119,102.564,678.964)">
                    <path d="M849.43,496.241C849.43,511.081 837.622,523.129 823.078,523.129L401.15,523.129C386.606,523.129 374.798,511.081 374.798,496.241C374.798,481.4 386.606,469.352 401.15,469.352L823.078,469.352C837.622,469.352 849.43,481.4 849.43,496.241Z" style="fill:rgb(104,80,255);"/>
                </g>
                <g transform="matrix(1.03254,-0.276668,0.271138,1.0119,61.1638,806.414)">
                    <path d="M849.43,496.241C849.43,511.081 837.622,523.129 823.078,523.129L401.15,523.129C386.606,523.129 374.798,511.081 374.798,496.241C374.798,481.4 386.606,469.352 401.15,469.352L823.078,469.352C837.622,469.352 849.43,481.4 849.43,496.241Z" style="fill:rgb(104,80,255);"/>
                </g>
                <g transform="matrix(1.03254,-0.276668,0.271138,1.0119,-19.7894,944.795)">
                    <path d="M849.43,496.241C849.43,511.081 837.622,523.129 823.078,523.129L401.15,523.129C386.606,523.129 374.798,511.081 374.798,496.241C374.798,481.4 386.606,469.352 401.15,469.352L823.078,469.352C837.622,469.352 849.43,481.4 849.43,496.241Z" style="fill:rgb(104,80,255);"/>
                </g>
                <g transform="matrix(1.03254,-0.276668,0.271138,1.0119,61.1334,1039.49)">
                    <path d="M849.43,496.241C849.43,511.081 837.622,523.129 823.078,523.129L401.15,523.129C386.606,523.129 374.798,511.081 374.798,496.241C374.798,481.4 386.606,469.352 401.15,469.352L823.078,469.352C837.622,469.352 849.43,481.4 849.43,496.241Z" style="fill:rgb(104,80,255);"/>
                </g>
                <g transform="matrix(0.965926,-0.258819,0.258819,0.965926,-23.0881,46.7874)">
                    <rect x="260.373" y="831.503" width="379.47" height="839.249" style="fill:rgb(104,80,255);"/>
                </g>
                <g transform="matrix(1.03254,-0.276668,0.271138,1.0119,251.401,464.56)">
                    <path d="M849.43,496.241C849.43,511.081 837.622,523.129 823.078,523.129L401.15,523.129C386.606,523.129 374.798,511.081 374.798,496.241C374.798,481.4 386.606,469.352 401.15,469.352L823.078,469.352C837.622,469.352 849.43,481.4 849.43,496.241Z" style="fill:rgb(64,0,255);"/>
                </g>
                <g transform="matrix(1.12296,-0.300895,0.271138,1.0119,154.223,606.889)">
                    <path d="M849.43,496.241C849.43,511.081 838.573,523.129 825.2,523.129L399.028,523.129C385.655,523.129 374.798,511.081 374.798,496.241C374.798,481.4 385.655,469.352 399.028,469.352L825.2,469.352C838.573,469.352 849.43,481.4 849.43,496.241Z" style="fill:rgb(64,0,255);"/>
                </g>
                <g transform="matrix(1.03254,-0.276668,0.271138,1.0119,342.799,672.687)">
                    <path d="M849.43,496.241C849.43,511.081 837.622,523.129 823.078,523.129L401.15,523.129C386.606,523.129 374.798,511.081 374.798,496.241C374.798,481.4 386.606,469.352 401.15,469.352L823.078,469.352C837.622,469.352 849.43,481.4 849.43,496.241Z" style="fill:rgb(64,0,255);"/>
                </g>
                <g transform="matrix(1.03254,-0.276668,0.271138,1.0119,160.015,838.089)">
                    <path d="M849.43,496.241C849.43,511.081 837.622,523.129 823.078,523.129L401.15,523.129C386.606,523.129 374.798,511.081 374.798,496.241C374.798,481.4 386.606,469.352 401.15,469.352L823.078,469.352C837.622,469.352 849.43,481.4 849.43,496.241Z" style="fill:rgb(64,0,255);"/>
                </g>
                <g transform="matrix(1.03254,-0.276668,0.271138,1.0119,347.829,904.523)">
                    <path d="M849.43,496.241C849.43,511.081 837.622,523.129 823.078,523.129L401.15,523.129C386.606,523.129 374.798,511.081 374.798,496.241C374.798,481.4 386.606,469.352 401.15,469.352L823.078,469.352C837.622,469.352 849.43,481.4 849.43,496.241Z" style="fill:rgb(64,0,255);"/>
                </g>
                <g transform="matrix(1.03254,-0.276668,0.271138,1.0119,426.161,999.507)">
                    <path d="M849.43,496.241C849.43,511.081 837.622,523.129 823.078,523.129L401.15,523.129C386.606,523.129 374.798,511.081 374.798,496.241C374.798,481.4 386.606,469.352 401.15,469.352L823.078,469.352C837.622,469.352 849.43,481.4 849.43,496.241Z" style="fill:rgb(64,0,255);"/>
                </g>
            </g>
        </g>
        <g transform="matrix(0.979344,0,0,0.979344,27.6173,1.72715)">
            <circle cx="901.295" cy="1100.26" r="354.041" style="fill:none;stroke:black;stroke-width:42.55px;"/>
        </g>
        <g transform="matrix(-2.74187,2.74187,-2.4602,-2.4602,6337.76,1350.07)">
            <clipPath id="_clip2">
                <rect x="800.518" y="1071.74" width="279.848" height="90.426"/>
            </clipPath>
            <g clip-path="url(#_clip2)">
                <path d="M940.441,1130.07C1017.67,1130.07 1080.37,1143.97 1080.37,1161.1C1080.37,1178.22 1017.67,1192.13 940.441,1192.13C863.215,1192.13 800.518,1178.22 800.518,1161.1C800.518,1143.97 863.215,1130.07 940.441,1130.07ZM940.441,1137.82C998.361,1137.82 1045.38,1148.25 1045.38,1161.1C1045.38,1173.94 998.361,1184.37 940.441,1184.37C882.522,1184.37 835.499,1173.94 835.499,1161.1C835.499,1148.25 882.522,1137.82 940.441,1137.82Z" style="fill:none;stroke:black;stroke-width:22.62px;"/>
                <path d="M940.441,1130.07C1017.67,1130.07 1080.37,1143.97 1080.37,1161.1C1080.37,1178.22 1017.67,1192.13 940.441,1192.13C863.215,1192.13 800.518,1178.22 800.518,1161.1C800.518,1143.97 863.215,1130.07 940.441,1130.07ZM940.441,1137.82C998.361,1137.82 1045.38,1148.25 1045.38,1161.1C1045.38,1173.94 998.361,1184.37 940.441,1184.37C882.522,1184.37 835.499,1173.94 835.499,1161.1C835.499,1148.25 882.522,1137.82 940.441,1137.82Z" style="fill:rgb(255,0,136);"/>
            </g>
        </g>
    </g>
</svg>
